<svg width="122" height="41" viewBox="0 0 122 41" fill="none" xmlns="http://www.w3.org/2000/svg">
<path d="M11.6445 20.7402L5.12785 27.4038V36.7544H0V0.641846H5.12785V20.8477L24.5709 0.641846H30.4466L15.1699 16.871L31.5149 36.7544H25.5324L11.6445 20.7402Z" fill="white"/>
<path d="M68.9054 33.8526L70.9352 29.9834C73.2854 31.5956 76.9177 32.7778 80.4431 32.7778C85.0367 32.7778 86.8529 31.3806 86.8529 29.0161C86.8529 22.8899 69.6532 28.1563 69.6532 17.301C69.6532 12.357 74.0332 9.13269 80.9772 9.13269C84.5026 9.13269 88.5621 10.1 90.9124 11.6047L88.7758 15.4739C86.3187 13.8617 83.648 13.3243 80.9772 13.3243C76.704 13.3243 74.5674 14.9365 74.5674 17.0861C74.5674 23.5347 91.767 18.2683 91.767 28.9086C91.767 33.8526 87.2802 36.9694 80.0157 36.9694C75.6357 37.0769 71.1488 35.6797 68.9054 33.8526Z" fill="white"/>
<path d="M122 20.2027V36.7543H117.299V33.1001C115.697 35.5721 112.599 36.9693 108.326 36.9693C102.13 36.9693 98.2837 33.6374 98.2837 28.9084C98.2837 24.5018 101.061 20.9551 109.18 20.9551H116.979V19.9878C116.979 15.7961 114.522 13.4316 109.715 13.4316C106.51 13.4316 103.198 14.6139 101.061 16.3335L99.0315 12.5718C101.809 10.3148 105.869 9.02502 110.249 9.02502C117.834 9.1325 122 12.7867 122 20.2027ZM117.086 28.371V24.5018H109.501C104.587 24.5018 103.198 26.4364 103.198 28.6935C103.198 31.3804 105.441 33.1001 109.18 33.1001C112.919 33.2075 115.911 31.5954 117.086 28.371Z" fill="white"/>
<path d="M53.0946 29.5537V36.8622L56.1927 35.0351V27.7266L53.0946 29.5537Z" fill="white"/>
<path d="M61.641 20.6328L48.9282 13.2168L41.8774 9.13269L34.9335 21.2777L35.0403 32.6703L47.6463 40.0863L48.9282 39.334V28.5862L54.5902 18.5907L60.359 21.9226V32.6703L61.641 31.918V20.6328Z" fill="white"/>
</svg>
